# xmcd
#
# Track frame offsets: 
#        183
#        13423
#        23530
#        36758
#        51735
#        64640
#        82293
#        99223
#        121910
#        133670
#        149543
#        167080
#        178268
#        197550
#        210368
#        222860
#        238403
#        253425
#        270435
#        277425
#
# Disc length: 3887 seconds
#
# Revision: 3
# Processed by: cddbd v1.4PL0 Copyright (c) Steve Scherf et al.
# Submitted via: ExactAudioCopy v0.95a3
#
DISCID=3d0f2d14
DTITLE=Fleetwood Mac - The Collection
DYEAR=1987
DGENRE=Classic Rock
TTITLE0=Shake Your Moneymaker (1968)
TTITLE1=Long Grey Mare (1973)
TTITLE2=I Loved Another Woman (1973)
TTITLE3=Got To Move (1973)
TTITLE4=Black Magic Woman (1969)
TTITLE5=Need Your Love So Bad (1969)
TTITLE6=Doctor Brown (1968)
TTITLE7=Love That Burns (1968)
TTITLE8=Lazy Poker Blues (1968)
TTITLE9=Drifting (1971)
TTITLE10=Fleetwood Mac (1971)
TTITLE11=Love That Woman (1971)
TTITLE12=I've Lost My Baby (1968)
TTITLE13=Man Of The World ()
TTITLE14=Someone's Gonna Get Their Head Kicked In Tonite ()
TTITLE15=Watch Out (1971)
TTITLE16=Homework (1969)
TTITLE17=Rockin' Boogie (1969)
TTITLE18=Jigsaw Puzzle Blues (1969)
TTITLE19=Albatross (1968)
EXTD=Compilation by Castle Communications YEAR: 1987
EXTT0=
EXTT1=
EXTT2=
EXTT3=
EXTT4=
EXTT5=
EXTT6=
EXTT7=
EXTT8=
EXTT9=
EXTT10=
EXTT11=
EXTT12=
EXTT13=
EXTT14=Yes, that's how they spell it ...
EXTT15=
EXTT16=
EXTT17=
EXTT18=outstanding.
EXTT19=
PLAYORDER=
